# xmcd
#
# Track frame offsets: 
#        150
#        6740
#        19470
#        29983
#        54216
#        71569
#        80139
#        104607
#        124652
#        142293
#        170011
#        176377
#        197169
#        220030
#        235459
#        253978
#        265433
#        288982
#        300833
#        330344
#
# Disc length: 4715 seconds
#
# Revision: 24
# Processed by: cddbd v1.5.2PL0 Copyright (c) Steve Scherf et al.
# Submitted via: ExactAudioCopy v1.3
#
DISCID=39126914
DTITLE=Outkast - The Love Below
DYEAR=2003
DGENRE=Hip-Hop
TTITLE0=The love below (intro)
TTITLE1=Love hater
TTITLE2=God (interlude)
TTITLE3=Happy Valentine’s day
TTITLE4=Spread
TTITLE5=Where are my panties?
TTITLE6=Prototype
TTITLE7=Outkast feat. Rosario Dawson - She lives in my lap
TTITLE8=Hey ya!
TTITLE9=Roses
TTITLE10=Good day, good sir
TTITLE11=Behold a lady
TTITLE12=Pink and blue
TTITLE13=Love in war
TTITLE14=She’s alive
TTITLE15=Outkast feat. Kelis - Dracula’s wedding
TTITLE16=My favorite things
TTITLE17=Outkast feat. Norah Jones - Take off your cool
TTITLE18=Vibrate
TTITLE19=A life in the day of Benjamin André (incomplete)
EXTD=
EXTT0=
EXTT1=
EXTT2=
EXTT3=
EXTT4=
EXTT5=
EXTT6=
EXTT7=
EXTT8=
EXTT9=
EXTT10=
EXTT11=
EXTT12=
EXTT13=
EXTT14=
EXTT15=
EXTT16=
EXTT17=
EXTT18=
EXTT19=
PLAYORDER=
